<svg width="285" height="80" viewBox="0 0 285 80" fill="none" xmlns="http://www.w3.org/2000/svg">
<mask id="mask0_1997_1466" style="mask-type:luminance" maskUnits="userSpaceOnUse" x="0" y="23" width="20" height="25">
<path fill-rule="evenodd" clip-rule="evenodd" d="M0 23.6411H19.7528V47.4386H0V23.6411Z" fill="white"/>
</mask>
<g mask="url(#mask0_1997_1466)">
<path fill-rule="evenodd" clip-rule="evenodd" d="M19.7525 47.4386H16.167L7.46387 35.4094L5.867 37.0069C4.92193 37.9521 4.07422 38.539 3.06385 38.767V47.4386H-0.000488281V23.6411H3.06385V35.6054C3.35711 35.6054 3.84626 35.1162 3.84626 35.1162L15.2219 23.6411H19.1332L9.6156 33.2579L19.7525 47.4386Z" fill="#ED1C24"/>
</g>
<path fill-rule="evenodd" clip-rule="evenodd" d="M32.0848 26.0703C26.8371 26.0703 22.9903 30.2757 22.9903 35.5244C22.9903 40.8056 26.8363 45.0105 32.0844 45.0105C37.3321 45.0105 41.146 40.8056 41.146 35.5244C41.146 30.2757 37.3325 26.0703 32.0848 26.0703ZM32.0844 47.8789C25.3043 47.8789 19.8936 42.3373 19.8936 35.524C19.894 28.7432 25.3047 23.2012 32.0848 23.2012C38.8974 23.2012 44.2104 28.7432 44.21 35.524C44.21 42.3373 38.8966 47.8789 32.0844 47.8789Z" fill="#ED1C24"/>
<path fill-rule="evenodd" clip-rule="evenodd" d="M68.1342 47.4411L68.1346 28.827L61.3545 41.8666H60.4747C58.2577 41.8666 57.0846 40.1389 55.9108 37.9221L51.1851 28.827L51.1843 47.4411H48.1204L48.1208 23.6436H51.7716L59.0076 37.2053C59.3009 37.7594 59.5617 38.2153 60.0184 38.346L67.5484 23.6436H71.1989L71.1985 47.4411H68.1342Z" fill="#ED1C24"/>
<path fill-rule="evenodd" clip-rule="evenodd" d="M89.6831 38.8813L85.2827 27.863L80.8823 38.8813H89.6831ZM81.2733 41.7501C80.2629 41.7501 79.6111 42.3696 79.122 43.1521L77.3945 47.4552H74.1018L83.7836 23.6577H86.8151L96.4628 47.4552H93.1709L91.4435 43.1521C90.9543 42.3696 90.3025 41.7501 89.2921 41.7501H81.2733Z" fill="#ED1C24"/>
<path fill-rule="evenodd" clip-rule="evenodd" d="M3.87625 55.6911H2.43926V59.4203H1.57176V55.6911H0.134766V54.9248H3.87625V55.6911Z" fill="#4B4A4B"/>
<path fill-rule="evenodd" clip-rule="evenodd" d="M6.69962 58.6794C6.9062 58.6794 7.08033 58.6374 7.22162 58.5527C7.3633 58.4684 7.47688 58.3584 7.56355 58.2234C7.65022 58.0884 7.71157 57.9333 7.74718 57.7579C7.7832 57.583 7.80101 57.4025 7.80101 57.2169V54.9248H8.66851V57.2169C8.66851 57.5248 8.6313 57.8141 8.55769 58.0841C8.48369 58.3544 8.36773 58.5907 8.20943 58.7934C8.05113 58.996 7.84731 59.1563 7.59838 59.2743C7.34945 59.3926 7.05184 59.452 6.70595 59.452C6.347 59.452 6.04227 59.3894 5.79096 59.2648C5.54005 59.1405 5.33624 58.9762 5.18031 58.7712C5.02398 58.5666 4.91119 58.3291 4.84154 58.0588C4.77189 57.7888 4.73706 57.5082 4.73706 57.2169V54.9248H5.61089V57.2169C5.61089 57.4069 5.6283 57.5893 5.66432 57.7643C5.70033 57.9396 5.76128 58.0948 5.84795 58.2297C5.93462 58.3651 6.04741 58.4736 6.18672 58.5559C6.32602 58.6382 6.49699 58.6794 6.69962 58.6794Z" fill="#4B4A4B"/>
<path fill-rule="evenodd" clip-rule="evenodd" d="M10.7891 57.1468H11.8845C11.9645 57.1468 12.0396 57.1278 12.1089 57.0898C12.1786 57.0519 12.2387 57 12.2898 56.9347C12.34 56.8694 12.3804 56.7922 12.4097 56.7035C12.4394 56.6149 12.454 56.5199 12.454 56.4186C12.454 56.3133 12.4374 56.2159 12.4033 56.1273C12.3697 56.039 12.3242 55.9618 12.2672 55.8961C12.2102 55.8308 12.1449 55.7801 12.0709 55.7445C11.9973 55.7085 11.9221 55.6907 11.8461 55.6907H10.7891V57.1468ZM9.91504 59.4203V54.9248H11.9029C12.1099 54.9248 12.3007 54.9683 12.476 55.0546C12.6513 55.1413 12.8021 55.2553 12.9287 55.3966C13.0554 55.5379 13.1547 55.6982 13.2263 55.8775C13.298 56.0572 13.334 56.2377 13.334 56.419C13.334 56.7103 13.2612 56.9751 13.1155 57.2137C12.9699 57.4524 12.7724 57.6242 12.5235 57.7298L13.5493 59.4203H12.5678L11.65 57.9135H10.7889V59.4203H9.91504Z" fill="#4B4A4B"/>
<path fill-rule="evenodd" clip-rule="evenodd" d="M15.3663 56.5393V59.4199H14.4924V54.9248H15.17L17.5124 57.8751V54.9311H18.3859V59.4199H17.6771L15.3663 56.5393Z" fill="#4B4A4B"/>
<path fill-rule="evenodd" clip-rule="evenodd" d="M19.6897 59.4204V54.9312H20.5635V57.065L22.4501 54.9253H23.4122L21.6902 56.9193L23.5198 59.4204H22.5387L21.1394 57.4766L20.5635 58.0782V59.4204H19.6897Z" fill="#4B4A4B"/>
<path fill-rule="evenodd" clip-rule="evenodd" d="M27.4134 58.654V59.4203H24.2925V54.9248H27.3564V55.6911H25.1659V56.7736H27.0588V57.4829H25.1659V58.654H27.4134Z" fill="#4B4A4B"/>
<path fill-rule="evenodd" clip-rule="evenodd" d="M28.9707 54.9248L30.0784 57.0902L31.2055 54.9248H32.1486L30.5153 57.8498V59.4199H29.6482V57.8371L28.0212 54.9248H28.9707Z" fill="#4B4A4B"/>
<path fill-rule="evenodd" clip-rule="evenodd" d="M34.624 57.1413C34.624 56.867 34.6735 56.5959 34.7724 56.3276C34.8718 56.06 35.0166 55.8201 35.2066 55.6092C35.3961 55.3982 35.6285 55.2272 35.9027 55.0962C36.177 54.9656 36.4892 54.8999 36.8399 54.8999C37.2534 54.8999 37.6108 54.9909 37.9128 55.1722C38.2143 55.3539 38.4391 55.5902 38.5871 55.8815L37.9159 56.3434C37.8566 56.2171 37.7849 56.1107 37.7006 56.024C37.6163 55.9373 37.5257 55.8688 37.4284 55.8182C37.3314 55.7675 37.2301 55.7307 37.1244 55.7073C37.0191 55.684 36.9158 55.6725 36.8145 55.6725C36.5949 55.6725 36.4037 55.7168 36.2415 55.8055C36.0788 55.8942 35.9439 56.0089 35.8362 56.1506C35.7286 56.2919 35.6474 56.4522 35.5924 56.6315C35.5378 56.8112 35.5101 56.9893 35.5101 57.1667C35.5101 57.3649 35.5418 57.5561 35.6051 57.7398C35.6684 57.9234 35.7583 58.0845 35.8742 58.2238C35.9902 58.3632 36.1295 58.4752 36.2921 58.5595C36.4544 58.6442 36.6329 58.6861 36.8268 58.6861C36.9281 58.6861 37.0338 58.6735 37.1434 58.6481C37.2534 58.6228 37.3579 58.5828 37.4568 58.5278C37.5562 58.4732 37.648 58.4023 37.7323 58.3157C37.8166 58.2294 37.8843 58.1249 37.9349 58.0026L38.6501 58.4138C38.5784 58.5828 38.4759 58.7316 38.3429 58.8603C38.2104 58.9889 38.0604 59.0978 37.8938 59.1864C37.7268 59.2751 37.5487 59.3428 37.3587 59.3891C37.1687 59.4354 36.9831 59.4587 36.8015 59.4587C36.4809 59.4587 36.1877 59.3911 35.9217 59.2561C35.6558 59.1207 35.427 58.945 35.2347 58.7273C35.0427 58.51 34.8931 58.263 34.7855 57.9868C34.6778 57.7101 34.624 57.4287 34.624 57.1413Z" fill="#4B4A4B"/>
<path fill-rule="evenodd" clip-rule="evenodd" d="M40.2201 57.172C40.2201 57.3663 40.2497 57.5539 40.3087 57.7356C40.3677 57.9169 40.4532 58.0776 40.5652 58.2165C40.6768 58.3558 40.8141 58.4678 40.9767 58.5521C41.139 58.6368 41.3238 58.6788 41.5308 58.6788C41.7413 58.6788 41.9281 58.6356 42.0908 58.549C42.2531 58.4627 42.3904 58.3475 42.5024 58.2038C42.614 58.0605 42.6987 57.8991 42.7557 57.7198C42.8127 57.5405 42.8412 57.3576 42.8412 57.172C42.8412 56.978 42.8103 56.79 42.7493 56.6084C42.688 56.4271 42.6013 56.2664 42.4897 56.1271C42.3777 55.9881 42.2404 55.8773 42.0781 55.795C41.9155 55.7123 41.733 55.6711 41.5308 55.6711C41.3195 55.6711 41.1319 55.7146 40.9672 55.8013C40.8026 55.8876 40.6653 56.0016 40.5557 56.1429C40.4456 56.2846 40.3625 56.4449 40.3055 56.6242C40.2486 56.8039 40.2201 56.9863 40.2201 57.172ZM41.5241 59.4514C41.1948 59.4514 40.8964 59.3869 40.6285 59.2583C40.3602 59.1296 40.1302 58.9586 39.9383 58.7453C39.7464 58.5324 39.5976 58.2885 39.4923 58.0139C39.3866 57.74 39.334 57.4589 39.334 57.172C39.334 56.8724 39.3898 56.5854 39.5018 56.3107C39.6134 56.0364 39.7673 55.7938 39.9636 55.5829C40.1599 55.3719 40.393 55.2041 40.6633 55.0794C40.9332 54.9547 41.2265 54.8926 41.5431 54.8926C41.8684 54.8926 42.1648 54.9591 42.4328 55.0921C42.7007 55.2251 42.9298 55.3992 43.1194 55.6145C43.3094 55.8294 43.4574 56.0744 43.5626 56.3487C43.6679 56.6234 43.7209 56.9017 43.7209 57.1847C43.7209 57.4843 43.6663 57.7704 43.5563 58.0424C43.4467 58.3147 43.2947 58.5553 43.1004 58.7643C42.9065 58.9733 42.6742 59.1399 42.4043 59.2646C42.134 59.3893 41.8407 59.4514 41.5241 59.4514Z" fill="#4B4A4B"/>
<path fill-rule="evenodd" clip-rule="evenodd" d="M45.6326 56.5393V59.4199H44.7588V54.9248H45.4363L47.7788 57.8751V54.9311H48.6522V59.4199H47.9434L45.6326 56.5393Z" fill="#4B4A4B"/>
<path fill-rule="evenodd" clip-rule="evenodd" d="M53.3181 55.6911H51.8812V59.4203H51.0137V55.6911H49.5767V54.9248H53.3181V55.6911Z" fill="#4B4A4B"/>
<path fill-rule="evenodd" clip-rule="evenodd" d="M55.1161 57.1468H56.2115C56.2915 57.1468 56.3667 57.1278 56.4359 57.0898C56.5056 57.0519 56.5657 57 56.6168 56.9347C56.6671 56.8694 56.7074 56.7922 56.7367 56.7035C56.7664 56.6149 56.781 56.5199 56.781 56.4186C56.781 56.3133 56.7644 56.2159 56.7304 56.1273C56.6967 56.039 56.6512 55.9618 56.5942 55.8961C56.5373 55.8308 56.472 55.7801 56.3979 55.7445C56.3243 55.7085 56.2491 55.6907 56.1732 55.6907H55.1161V57.1468ZM54.2422 59.4203V54.9248H56.2301C56.4371 54.9248 56.6278 54.9683 56.8031 55.0546C56.9784 55.1413 57.1292 55.2553 57.2559 55.3966C57.3825 55.5379 57.4818 55.6982 57.5535 55.8775C57.6251 56.0572 57.6611 56.2377 57.6611 56.419C57.6611 56.7103 57.5883 56.9751 57.4427 57.2137C57.297 57.4524 57.0995 57.6242 56.8506 57.7298L57.8764 59.4203H56.8949L55.9772 57.9135H55.116V59.4203H54.2422Z" fill="#4B4A4B"/>
<path fill-rule="evenodd" clip-rule="evenodd" d="M61.1048 57.6849L60.4843 55.9184L59.8388 57.6849H61.1048ZM60.0984 54.9248H60.8705L62.5798 59.4199H61.681L61.2631 58.2994H59.6932L59.2816 59.4199H58.3828L60.0984 54.9248Z" fill="#4B4A4B"/>
<path fill-rule="evenodd" clip-rule="evenodd" d="M63.1687 57.1413C63.1687 56.867 63.2182 56.5959 63.3171 56.3276C63.4164 56.06 63.5613 55.8201 63.7513 55.6092C63.9408 55.3982 64.1731 55.2272 64.4474 55.0962C64.7216 54.9656 65.0339 54.8999 65.3845 54.8999C65.7981 54.8999 66.1555 54.9909 66.4574 55.1722C66.759 55.3539 66.9838 55.5902 67.1318 55.8815L66.4606 56.3434C66.4012 56.2171 66.3296 56.1107 66.2453 56.024C66.161 55.9373 66.0704 55.8688 65.973 55.8182C65.8761 55.7675 65.7748 55.7307 65.6691 55.7073C65.5638 55.684 65.4605 55.6725 65.3592 55.6725C65.1396 55.6725 64.9484 55.7168 64.7862 55.8055C64.6235 55.8942 64.4885 56.0089 64.3809 56.1506C64.2733 56.2919 64.1921 56.4522 64.1371 56.6315C64.0825 56.8112 64.0548 56.9893 64.0548 57.1667C64.0548 57.3649 64.0865 57.5561 64.1498 57.7398C64.2131 57.9234 64.3029 58.0845 64.4189 58.2238C64.5349 58.3632 64.6742 58.4752 64.8368 58.5595C64.9991 58.6442 65.1776 58.6861 65.3715 58.6861C65.4728 58.6861 65.5785 58.6735 65.6881 58.6481C65.7981 58.6228 65.9026 58.5828 66.0015 58.5278C66.1009 58.4732 66.1927 58.4023 66.277 58.3157C66.3613 58.2294 66.4289 58.1249 66.4796 58.0026L67.1947 58.4138C67.1231 58.5828 67.0206 58.7316 66.8876 58.8603C66.755 58.9889 66.6051 59.0978 66.4384 59.1864C66.2714 59.2751 66.0933 59.3428 65.9034 59.3891C65.7134 59.4354 65.5278 59.4587 65.3462 59.4587C65.0256 59.4587 64.7323 59.3911 64.4664 59.2561C64.2004 59.1207 63.9717 58.945 63.7794 58.7273C63.5874 58.51 63.4378 58.263 63.3302 57.9868C63.2225 57.7101 63.1687 57.4287 63.1687 57.1413Z" fill="#4B4A4B"/>
<path fill-rule="evenodd" clip-rule="evenodd" d="M71.5122 55.6911H70.0752V59.4203H69.2077V55.6911H67.7708V54.9248H71.5122V55.6911Z" fill="#4B4A4B"/>
<path fill-rule="evenodd" clip-rule="evenodd" d="M77.9883 59.4204V56.4444L76.8299 58.6609H76.355L75.1962 56.4444V59.4204H74.3228V54.9253H75.2595L76.5893 57.483L77.9313 54.9253H78.8621V59.4204H77.9883Z" fill="#4B4A4B"/>
<path fill-rule="evenodd" clip-rule="evenodd" d="M82.4514 57.6849L81.8309 55.9184L81.1854 57.6849H82.4514ZM81.4451 54.9248H82.2172L83.9265 59.4199H83.0277L82.6098 58.2994H81.0398L80.6283 59.4199H79.7295L81.4451 54.9248Z" fill="#4B4A4B"/>
<path fill-rule="evenodd" clip-rule="evenodd" d="M85.6607 56.5393V59.4199H84.7869V54.9248H85.4644L87.8069 57.8751V54.9311H88.6803V59.4199H87.9715L85.6607 56.5393Z" fill="#4B4A4B"/>
<path fill-rule="evenodd" clip-rule="evenodd" d="M91.8842 58.6794C92.0908 58.6794 92.2649 58.6374 92.4062 58.5527C92.5479 58.4684 92.6615 58.3584 92.7481 58.2234C92.8348 58.0884 92.8961 57.9333 92.9318 57.7579C92.9678 57.583 92.9856 57.4025 92.9856 57.2169V54.9248H93.8531V57.2169C93.8531 57.5248 93.8159 57.8141 93.7423 58.0841C93.6683 58.3544 93.5523 58.5907 93.394 58.7934C93.2357 58.996 93.0319 59.1563 92.783 59.2743C92.534 59.3926 92.2364 59.452 91.8905 59.452C91.5316 59.452 91.2268 59.3894 90.9755 59.2648C90.7246 59.1405 90.5208 58.9762 90.3649 58.7712C90.2086 58.5666 90.0958 58.3291 90.0261 58.0588C89.9565 57.7888 89.9216 57.5082 89.9216 57.2169V54.9248H90.7955V57.2169C90.7955 57.4069 90.8129 57.5893 90.8489 57.7643C90.8849 57.9396 90.9458 58.0948 91.0325 58.2297C91.1192 58.3651 91.232 58.4736 91.3713 58.5559C91.5106 58.6382 91.6816 58.6794 91.8842 58.6794Z" fill="#4B4A4B"/>
<path fill-rule="evenodd" clip-rule="evenodd" d="M95.1001 59.4204V54.9253H98.1197V55.6912H95.9739V56.8497H97.7592V57.5589H95.9739V59.4204H95.1001Z" fill="#4B4A4B"/>
<path fill-rule="evenodd" clip-rule="evenodd" d="M101.386 57.6849L100.766 55.9184L100.12 57.6849H101.386ZM100.38 54.9248H101.152L102.861 59.4199H101.963L101.545 58.2994H99.9747L99.5631 59.4199H98.6643L100.38 54.9248Z" fill="#4B4A4B"/>
<path fill-rule="evenodd" clip-rule="evenodd" d="M103.45 57.1413C103.45 56.867 103.5 56.5959 103.599 56.3276C103.698 56.06 103.843 55.8201 104.033 55.6092C104.223 55.3982 104.455 55.2272 104.729 55.0962C105.003 54.9656 105.316 54.8999 105.666 54.8999C106.08 54.8999 106.437 54.9909 106.739 55.1722C107.041 55.3539 107.266 55.5902 107.414 55.8815L106.742 56.3434C106.683 56.2171 106.611 56.1107 106.527 56.024C106.443 55.9373 106.352 55.8688 106.255 55.8182C106.158 55.7675 106.056 55.7307 105.951 55.7073C105.846 55.684 105.742 55.6725 105.641 55.6725C105.421 55.6725 105.23 55.7168 105.068 55.8055C104.905 55.8942 104.77 56.0089 104.663 56.1506C104.555 56.2919 104.474 56.4522 104.419 56.6315C104.364 56.8112 104.337 56.9893 104.337 57.1667C104.337 57.3649 104.368 57.5561 104.432 57.7398C104.495 57.9234 104.585 58.0845 104.701 58.2238C104.817 58.3632 104.956 58.4752 105.119 58.5595C105.281 58.6442 105.459 58.6861 105.653 58.6861C105.755 58.6861 105.86 58.6735 105.97 58.6481C106.08 58.6228 106.184 58.5828 106.283 58.5278C106.383 58.4732 106.474 58.4023 106.559 58.3157C106.643 58.2294 106.711 58.1249 106.761 58.0026L107.476 58.4138C107.405 58.5828 107.302 58.7316 107.169 58.8603C107.037 58.9889 106.887 59.0978 106.72 59.1864C106.553 59.2751 106.375 59.3428 106.185 59.3891C105.995 59.4354 105.81 59.4587 105.628 59.4587C105.307 59.4587 105.014 59.3911 104.748 59.2561C104.482 59.1207 104.253 58.945 104.061 58.7273C103.869 58.51 103.72 58.263 103.612 57.9868C103.504 57.7101 103.45 57.4287 103.45 57.1413Z" fill="#4B4A4B"/>
<path fill-rule="evenodd" clip-rule="evenodd" d="M111.794 55.6911H110.357V59.4203H109.489V55.6911H108.052V54.9248H111.794V55.6911Z" fill="#4B4A4B"/>
<path fill-rule="evenodd" clip-rule="evenodd" d="M114.617 58.6794C114.824 58.6794 114.998 58.6374 115.14 58.5527C115.281 58.4684 115.395 58.3584 115.482 58.2234C115.568 58.0884 115.629 57.9333 115.665 57.7579C115.701 57.583 115.719 57.4025 115.719 57.2169V54.9248H116.587V57.2169C116.587 57.5248 116.549 57.8141 116.475 58.0841C116.402 58.3544 116.285 58.5907 116.127 58.7934C115.969 58.996 115.765 59.1563 115.516 59.2743C115.268 59.3926 114.97 59.452 114.624 59.452C114.265 59.452 113.96 59.3894 113.709 59.2648C113.458 59.1405 113.254 58.9762 113.098 58.7712C112.942 58.5666 112.829 58.3291 112.76 58.0588C112.69 57.7888 112.655 57.5082 112.655 57.2169V54.9248H113.529V57.2169C113.529 57.4069 113.546 57.5893 113.582 57.7643C113.618 57.9396 113.679 58.0948 113.766 58.2297C113.852 58.3651 113.966 58.4736 114.104 58.5559C114.244 58.6382 114.415 58.6794 114.617 58.6794Z" fill="#4B4A4B"/>
<path fill-rule="evenodd" clip-rule="evenodd" d="M118.707 57.1468H119.802C119.883 57.1468 119.957 57.1278 120.027 57.0898C120.097 57.0519 120.157 57 120.207 56.9347C120.258 56.8694 120.298 56.7922 120.328 56.7035C120.357 56.6149 120.372 56.5199 120.372 56.4186C120.372 56.3133 120.355 56.2159 120.321 56.1273C120.287 56.039 120.242 55.9618 120.185 55.8961C120.128 55.8308 120.063 55.7801 119.989 55.7445C119.915 55.7085 119.84 55.6907 119.764 55.6907H118.707V57.1468ZM117.833 59.4203V54.9248H119.821C120.028 54.9248 120.219 54.9683 120.394 55.0546C120.569 55.1413 120.72 55.2553 120.847 55.3966C120.974 55.5379 121.073 55.6982 121.144 55.8775C121.216 56.0572 121.252 56.2377 121.252 56.419C121.252 56.7103 121.179 56.9751 121.033 57.2137C120.888 57.4524 120.691 57.6242 120.442 57.7298L121.467 59.4203H120.486L119.568 57.9135H118.707V59.4203H117.833Z" fill="#4B4A4B"/>
<path fill-rule="evenodd" clip-rule="evenodd" d="M122.41 59.4199H123.284V54.9248H122.41V59.4199Z" fill="#4B4A4B"/>
<path fill-rule="evenodd" clip-rule="evenodd" d="M125.462 56.5393V59.4199H124.588V54.9248H125.265L127.608 57.8751V54.9311H128.481V59.4199H127.772L125.462 56.5393Z" fill="#4B4A4B"/>
<path fill-rule="evenodd" clip-rule="evenodd" d="M132.907 58.9136C132.548 59.2726 132.13 59.4519 131.653 59.4519C131.358 59.4519 131.08 59.3925 130.821 59.2746C130.561 59.1562 130.335 58.994 130.143 58.787C129.951 58.5803 129.799 58.3365 129.687 58.0559C129.575 57.7753 129.519 57.4721 129.519 57.1472C129.519 56.8392 129.575 56.5487 129.687 56.2764C129.799 56.0041 129.953 55.7658 130.149 55.5612C130.346 55.3565 130.577 55.1939 130.843 55.0736C131.109 54.9532 131.398 54.8931 131.71 54.8931C132.132 54.8931 132.494 54.9817 132.796 55.159C133.097 55.3364 133.324 55.5746 133.476 55.8747L132.824 56.3559C132.71 56.1319 132.551 55.9613 132.346 55.843C132.141 55.7246 131.919 55.6657 131.678 55.6657C131.488 55.6657 131.314 55.706 131.156 55.786C130.998 55.8659 130.862 55.976 130.751 56.1153C130.639 56.2542 130.553 56.4149 130.491 56.5966C130.43 56.7779 130.399 56.9698 130.399 57.1725C130.399 57.3834 130.433 57.5809 130.501 57.7646C130.568 57.9483 130.661 58.1074 130.779 58.2423C130.897 58.3777 131.038 58.4842 131.2 58.5621C131.363 58.6405 131.539 58.6793 131.729 58.6793C132.164 58.6793 132.556 58.4747 132.907 58.065V57.7488H132.001V57.1092H133.628V59.4202H132.907V58.9136Z" fill="#4B4A4B"/>
<path fill-rule="evenodd" clip-rule="evenodd" d="M137.484 55.9185C137.484 55.9565 137.491 55.9933 137.503 56.0293C137.515 56.0653 137.537 56.1041 137.566 56.1465C137.596 56.1888 137.635 56.2371 137.683 56.2921C137.732 56.3471 137.794 56.4144 137.87 56.4948C138.031 56.3851 138.153 56.2826 138.237 56.1876C138.322 56.0926 138.364 55.9881 138.364 55.8741C138.364 55.7602 138.325 55.6683 138.247 55.5987C138.168 55.529 138.069 55.4942 137.946 55.4942C137.811 55.4942 137.7 55.5353 137.614 55.6177C137.527 55.7 137.484 55.8005 137.484 55.9185ZM138.016 58.8188C138.277 58.8188 138.52 58.7321 138.744 58.5591L137.706 57.4636C137.558 57.5692 137.442 57.6769 137.358 57.7865C137.273 57.8966 137.231 58.0189 137.231 58.1538C137.231 58.2425 137.25 58.328 137.288 58.4103C137.326 58.4926 137.379 58.5635 137.449 58.6225C137.519 58.6814 137.602 58.7289 137.699 58.7646C137.796 58.8006 137.902 58.8188 138.016 58.8188ZM139.554 59.4198L139.2 59.0461C139.014 59.1898 138.813 59.2987 138.598 59.3723C138.383 59.4463 138.161 59.4831 137.933 59.4831C137.701 59.4831 137.491 59.4475 137.304 59.3754C137.116 59.3038 136.956 59.2068 136.826 59.0845C136.695 58.9618 136.593 58.8193 136.522 58.6567C136.45 58.4944 136.414 58.3246 136.414 58.1473C136.414 58.008 136.435 57.8793 136.477 57.761C136.519 57.6426 136.578 57.5342 136.651 57.4348C136.725 57.3359 136.81 57.2441 136.905 57.1594C136.999 57.0751 137.1 56.9971 137.206 56.925C137.024 56.7228 136.896 56.5486 136.822 56.403C136.749 56.2573 136.712 56.1042 136.712 55.9439C136.712 55.7836 136.743 55.6367 136.807 55.5037C136.87 55.3707 136.956 55.2571 137.066 55.1618C137.176 55.0672 137.306 54.9943 137.456 54.9437C137.605 54.893 137.769 54.8677 137.946 54.8677C138.102 54.8677 138.252 54.8887 138.396 54.9306C138.539 54.973 138.666 55.0355 138.776 55.1178C138.885 55.2001 138.974 55.3035 139.041 55.4277C139.109 55.5524 139.142 55.6969 139.142 55.8615C139.142 56.1065 139.071 56.3207 138.927 56.5043C138.784 56.688 138.6 56.8597 138.377 57.0204L139.238 57.9193C139.301 57.7843 139.351 57.6367 139.387 57.476C139.422 57.3157 139.44 57.1427 139.44 56.9571H140.13C140.126 57.2567 140.09 57.529 140.023 57.7736C139.955 58.0186 139.86 58.2423 139.738 58.4449L140.668 59.4198H139.554Z" fill="#4B4A4B"/>
<path fill-rule="evenodd" clip-rule="evenodd" d="M145.675 57.6849L145.055 55.9184L144.409 57.6849H145.675ZM144.669 54.9248H145.441L147.151 59.4199H146.252L145.834 58.2994H144.264L143.853 59.4199H142.953L144.669 54.9248Z" fill="#4B4A4B"/>
<path fill-rule="evenodd" clip-rule="evenodd" d="M150.69 56.1027C150.66 56.0734 150.606 56.0331 150.528 55.9824C150.45 55.9317 150.355 55.8823 150.243 55.8336C150.132 55.7853 150.01 55.7441 149.879 55.7101C149.749 55.6764 149.616 55.6594 149.48 55.6594C149.24 55.6594 149.061 55.7038 148.942 55.7924C148.824 55.8811 148.765 56.0058 148.765 56.1661C148.765 56.2591 148.787 56.3359 148.832 56.3972C148.876 56.4582 148.94 56.5124 149.025 56.5587C149.109 56.6054 149.216 56.6473 149.345 56.6853C149.473 56.7233 149.622 56.7633 149.791 56.8057C150.01 56.8646 150.21 56.928 150.389 56.9957C150.568 57.0629 150.72 57.1476 150.845 57.249C150.969 57.3499 151.065 57.4714 151.133 57.6127C151.2 57.7544 151.234 57.9286 151.234 58.1352C151.234 58.3758 151.189 58.5816 151.098 58.7526C151.008 58.9232 150.885 59.0617 150.731 59.1674C150.577 59.2727 150.4 59.3499 150.199 59.3982C149.999 59.4468 149.789 59.471 149.569 59.471C149.231 59.471 148.898 59.4203 148.569 59.319C148.24 59.2181 147.944 59.0744 147.682 58.8888L148.069 58.1352C148.107 58.1732 148.175 58.2226 148.274 58.284C148.373 58.3453 148.491 58.4063 148.626 58.4676C148.761 58.5286 148.911 58.5804 149.075 58.6228C149.24 58.6651 149.409 58.6861 149.582 58.6861C150.063 58.6861 150.303 58.5321 150.303 58.2238C150.303 58.1268 150.276 58.0445 150.221 57.9768C150.167 57.9092 150.088 57.8502 149.987 57.7995C149.886 57.7489 149.763 57.7026 149.62 57.6602C149.476 57.6182 149.316 57.5715 149.139 57.5209C148.923 57.4619 148.737 57.3974 148.578 57.3277C148.42 57.2581 148.288 57.1757 148.183 57.0811C148.077 56.9858 147.998 56.8765 147.945 56.7518C147.893 56.6272 147.866 56.4783 147.866 56.3054C147.866 56.0774 147.908 55.8747 147.993 55.6978C148.077 55.5201 148.194 55.3725 148.344 55.2541C148.494 55.1362 148.668 55.0467 148.866 54.9854C149.065 54.924 149.278 54.8936 149.506 54.8936C149.823 54.8936 150.114 54.943 150.379 55.0424C150.645 55.1413 150.878 55.2585 151.076 55.3935L150.69 56.1027Z" fill="#4B4A4B"/>
<path fill-rule="evenodd" clip-rule="evenodd" d="M154.937 56.1027C154.908 56.0734 154.854 56.0331 154.776 55.9824C154.698 55.9317 154.602 55.8823 154.491 55.8336C154.379 55.7853 154.258 55.7441 154.127 55.7101C153.996 55.6764 153.863 55.6594 153.728 55.6594C153.488 55.6594 153.308 55.7038 153.19 55.7924C153.072 55.8811 153.013 56.0058 153.013 56.1661C153.013 56.2591 153.035 56.3359 153.079 56.3972C153.124 56.4582 153.188 56.5124 153.272 56.5587C153.357 56.6054 153.463 56.6473 153.592 56.6853C153.721 56.7233 153.87 56.7633 154.039 56.8057C154.258 56.8646 154.457 56.928 154.637 56.9957C154.816 57.0629 154.968 57.1476 155.092 57.249C155.217 57.3499 155.313 57.4714 155.381 57.6127C155.448 57.7544 155.482 57.9286 155.482 58.1352C155.482 58.3758 155.436 58.5816 155.346 58.7526C155.255 58.9232 155.132 59.0617 154.978 59.1674C154.824 59.2727 154.647 59.3499 154.447 59.3982C154.246 59.4468 154.036 59.471 153.817 59.471C153.479 59.471 153.146 59.4203 152.817 59.319C152.488 59.2181 152.192 59.0744 151.93 58.8888L152.317 58.1352C152.355 58.1732 152.423 58.2226 152.522 58.284C152.621 58.3453 152.738 58.4063 152.873 58.4676C153.008 58.5286 153.158 58.5804 153.323 58.6228C153.488 58.6651 153.657 58.6861 153.829 58.6861C154.31 58.6861 154.551 58.5321 154.551 58.2238C154.551 58.1268 154.524 58.0445 154.469 57.9768C154.414 57.9092 154.336 57.8502 154.235 57.7995C154.134 57.7489 154.011 57.7026 153.868 57.6602C153.724 57.6182 153.563 57.5715 153.386 57.5209C153.171 57.4619 152.984 57.3974 152.826 57.3277C152.668 57.2581 152.536 57.1757 152.43 57.0811C152.325 56.9858 152.246 56.8765 152.193 56.7518C152.14 56.6272 152.114 56.4783 152.114 56.3054C152.114 56.0774 152.156 55.8747 152.241 55.6978C152.325 55.5201 152.442 55.3725 152.592 55.2541C152.742 55.1362 152.916 55.0467 153.114 54.9854C153.313 54.924 153.526 54.8936 153.754 54.8936C154.07 54.8936 154.361 54.943 154.627 55.0424C154.893 55.1413 155.125 55.2585 155.324 55.3935L154.937 56.1027Z" fill="#4B4A4B"/>
<path fill-rule="evenodd" clip-rule="evenodd" d="M159.629 58.654V59.4203H156.507V54.9248H159.571V55.6911H157.381V56.7736H159.274V57.4829H157.381V58.654H159.629Z" fill="#4B4A4B"/>
<path fill-rule="evenodd" clip-rule="evenodd" d="M164.344 59.4204V56.4444L163.186 58.6609H162.711L161.553 56.4444V59.4204H160.679V54.9253H161.616L162.945 57.483L164.287 54.9253H165.218V59.4204H164.344Z" fill="#4B4A4B"/>
<path fill-rule="evenodd" clip-rule="evenodd" d="M169.264 58.0971C169.264 58.0167 169.25 57.9399 169.223 57.8659C169.195 57.7919 169.158 57.7278 169.112 57.6728C169.065 57.6181 169.011 57.5746 168.947 57.5429C168.884 57.5117 168.814 57.4954 168.738 57.4954H167.396V58.6797H168.694C168.774 58.6797 168.849 58.665 168.919 58.6353C168.988 58.6057 169.049 58.5645 169.099 58.5119C169.15 58.4592 169.19 58.3967 169.22 58.325C169.249 58.2534 169.264 58.1774 169.264 58.0971ZM167.396 55.6722V56.8057H168.561C168.709 56.8057 168.834 56.7551 168.938 56.6538C169.041 56.5524 169.093 56.4131 169.093 56.2358C169.093 56.0628 169.045 55.9255 168.95 55.8242C168.855 55.7228 168.738 55.6722 168.599 55.6722H167.396ZM170.144 58.2619C170.144 58.4519 170.105 58.6185 170.03 58.7622C169.953 58.9055 169.849 59.0258 169.716 59.1228C169.583 59.2201 169.429 59.2937 169.254 59.3444C169.079 59.3951 168.892 59.4204 168.694 59.4204H166.522V54.9253H168.928C169.084 54.9253 169.226 54.9589 169.352 55.0266C169.479 55.0939 169.586 55.1814 169.675 55.289C169.764 55.3967 169.832 55.5194 169.881 55.6563C169.929 55.7937 169.953 55.9318 169.953 56.0711C169.953 56.2908 169.898 56.4966 169.789 56.6886C169.679 56.8805 169.519 57.023 169.308 57.116C169.565 57.1916 169.769 57.3278 169.919 57.5241C170.069 57.7204 170.144 57.9662 170.144 58.2619Z" fill="#4B4A4B"/>
<path fill-rule="evenodd" clip-rule="evenodd" d="M171.194 59.4204V54.9253H172.068V58.6541H174.36V59.4204H171.194Z" fill="#4B4A4B"/>
<path fill-rule="evenodd" clip-rule="evenodd" d="M175.765 54.9248L176.873 57.0902L178 54.9248H178.943L177.31 57.8498V59.4199H176.442V57.8371L174.816 54.9248H175.765Z" fill="#4B4A4B"/>
<path fill-rule="evenodd" clip-rule="evenodd" d="M97.6543 44.0666L99.3208 42.0939C101.803 44.3389 104.184 45.461 107.483 45.461C110.68 45.461 112.788 43.7602 112.788 41.4135V41.3455C112.788 39.1349 111.598 37.8763 106.599 36.8219C101.123 35.6317 98.6065 33.8629 98.6065 29.9516V29.8839C98.6065 26.1424 101.905 23.3872 106.429 23.3872C109.898 23.3872 112.38 24.3735 114.795 26.3126L113.23 28.387C111.02 26.5849 108.809 25.8024 106.361 25.8024C103.266 25.8024 101.293 27.5027 101.293 29.6452V29.7137C101.293 31.9583 102.517 33.2165 107.755 34.3394C113.06 35.4955 115.509 37.4342 115.509 41.0736V41.1412C115.509 45.2231 112.108 47.8762 107.381 47.8762C103.606 47.8762 100.511 46.6175 97.6543 44.0666Z" fill="#4B4A4B"/>
<path fill-rule="evenodd" clip-rule="evenodd" d="M127.779 36.6861C131.724 36.6861 134.308 34.5772 134.308 31.4484V31.3804C134.308 27.9788 131.758 26.2104 127.914 26.2104H121.895V36.6861H127.779ZM119.208 23.7271H128.119C133.492 23.7271 137.029 26.5847 137.029 31.2781V31.3458C137.029 36.4817 132.744 39.1348 127.676 39.1348H124.117C122.89 39.1348 121.895 40.1298 121.895 41.3576V47.5356H119.208V23.7271Z" fill="#4B4A4B"/>
<path fill-rule="evenodd" clip-rule="evenodd" d="M140.106 23.7271H155.994V26.1759H142.793V33.987H154.463V36.4358H145.041C143.8 36.4358 142.793 37.4423 142.793 38.684V45.0864H156.163V47.5356H140.106V23.7271Z" fill="#4B4A4B"/>
<path fill-rule="evenodd" clip-rule="evenodd" d="M158.156 35.6996V35.6315C158.156 28.897 163.19 23.3193 170.195 23.3193C174.514 23.3193 177.099 24.8499 179.48 27.0945L177.643 29.0672C175.637 27.1626 173.392 25.8022 170.162 25.8022C164.89 25.8022 160.945 30.0875 160.945 35.5638V35.6315C160.945 41.1414 164.924 45.4612 170.162 45.4612C173.426 45.4612 175.568 44.2022 177.847 42.0257L179.616 43.7601C177.133 46.277 174.412 47.9437 170.093 47.9437C163.224 47.9437 158.156 42.5358 158.156 35.6996Z" fill="#4B4A4B"/>
<path fill-rule="evenodd" clip-rule="evenodd" d="M189.402 21.9294L188.933 22.4048C188.631 22.0735 188.213 21.7276 187.673 21.3528L188.155 20.8845C188.645 21.2305 189.063 21.5835 189.402 21.9294ZM189.214 23.6367L188.724 24.1196C188.422 23.7808 188.004 23.4135 187.457 23.0098L187.94 22.5415C188.443 22.9021 188.869 23.2694 189.214 23.6367ZM190.994 24.9983L190.317 25.1068V27.1167H189.625V25.222L187.457 25.5679L187.356 24.9049L189.625 24.5372V20.5171H190.317V24.4292L190.886 24.3358L190.994 24.9983ZM185.598 22.3758V21.4753C185.274 21.5185 184.942 21.5616 184.611 21.5905L184.481 20.9489C185.411 20.8773 186.239 20.7332 186.974 20.5171L187.212 21.1583C186.917 21.2374 186.607 21.3095 186.29 21.3673V22.3758H187.212V23.0316H186.29V23.3126C186.672 23.6008 187.06 23.9321 187.457 24.3069L187.075 24.8903C186.765 24.5083 186.506 24.1984 186.29 23.9681V27.1167H185.598V24.0112C185.332 24.6453 184.986 25.2287 184.553 25.7476L184.251 24.9841C184.827 24.4074 185.252 23.7591 185.518 23.0316H184.474V22.3758H185.598Z" fill="#ED1C24"/>
<path fill-rule="evenodd" clip-rule="evenodd" d="M188.393 29.9516L188.068 31.6951H189.336L189.653 29.5052L187.218 29.5048V28.8564H190.417L190.006 31.6951H190.763C190.763 33.4679 190.662 34.4907 190.467 34.7717C190.265 35.0385 189.826 35.1754 189.163 35.1754C188.962 35.1754 188.753 35.1612 188.529 35.1394L188.342 34.4764C188.659 34.52 188.882 34.5413 189.012 34.5413C189.538 34.5413 189.848 34.4333 189.949 34.2172C190.057 34.0007 190.114 33.3741 190.114 32.3292H187.326L187.744 29.9156L188.393 29.9516ZM189.704 33.0784V33.7124H187.139V33.0784H189.704ZM185.309 31.2048V29.6774H184.401V29.0216H186.973V29.6774H185.993V31.2048H186.786V31.8678H185.993V33.3809C186.325 33.2943 186.642 33.1933 186.959 33.0928V33.7554C186.202 34.0004 185.395 34.2022 184.531 34.3605L184.365 33.7051C184.682 33.6619 184.999 33.6042 185.309 33.5464V31.8678H184.524V31.2048H185.309Z" fill="#ED1C24"/>
<path fill-rule="evenodd" clip-rule="evenodd" d="M188.601 42.0082L188.06 42.3902C187.859 42.0514 187.578 41.677 187.232 41.2732L187.765 40.942C188.125 41.3457 188.406 41.7059 188.601 42.0082ZM189.429 40.0705V39.6597H190.092V40.0705H190.906V40.7188H190.092V42.6135C190.092 43.0746 189.854 43.3054 189.379 43.3054H188.514L188.378 42.6571C188.644 42.6856 188.903 42.7073 189.148 42.7073C189.336 42.7073 189.429 42.6206 189.429 42.4552V40.7188L187.102 40.7184V40.0701L189.429 40.0705ZM189.235 36.6982V37.4186H190.906V38.0527H189.235V38.7445H190.683L190.683 39.3857H187.21L187.21 38.7441L188.572 38.7445V38.0527H186.922V37.4186H188.572V36.6982H189.235ZM184.891 39.8252L184.292 39.6593C184.509 38.9101 184.632 38.1102 184.66 37.2746L185.28 37.3249C185.265 37.6059 185.251 37.8798 185.222 38.1537H185.655V36.7126H186.31V38.1537H186.886V38.8167H186.31L186.31 40.3512C186.518 40.2645 186.72 40.1853 186.915 40.0991V40.7474C186.713 40.8341 186.512 40.9203 186.31 40.9924V43.3557H185.654V41.2303C185.273 41.3526 184.883 41.4677 184.487 41.5758L184.322 40.9132C184.768 40.8265 185.214 40.7185 185.654 40.5891L185.655 38.8167H185.129C185.064 39.1622 184.984 39.4935 184.891 39.8252Z" fill="#ED1C24"/>
<path fill-rule="evenodd" clip-rule="evenodd" d="M189.652 46.068H188.089C188.067 46.0969 188.046 46.133 188.031 46.1618C188.24 46.4789 188.507 46.767 188.831 47.0334C189.17 46.731 189.444 46.414 189.652 46.068ZM187.916 50.5428H189.696V49.3249H187.916V50.5428ZM185.993 51.436H185.323V48.1069C185.114 48.705 184.854 49.2528 184.552 49.7499L184.256 49.0078C184.732 48.3737 185.085 47.6458 185.308 46.8245H184.422V46.1687H185.323V44.8218H185.993V46.1687H186.72V46.8245H185.993V47.1487C186.281 47.4657 186.562 47.8045 186.85 48.179C187.426 47.9486 187.931 47.6893 188.363 47.4012C188.103 47.1562 187.88 46.9041 187.693 46.6373C187.534 46.832 187.361 47.0121 187.189 47.1847L186.757 46.6587C187.246 46.2122 187.664 45.5999 188.01 44.8071L188.665 44.9587C188.593 45.117 188.529 45.2758 188.457 45.4198H190.409V45.9458C190.164 46.4932 189.818 46.9832 189.364 47.4155C189.833 47.7182 190.38 47.9704 191 48.1865L190.69 48.8348C189.977 48.5324 189.372 48.2011 188.874 47.8263C188.428 48.1576 187.902 48.4457 187.311 48.6907H190.359V51.4502H189.696V51.1767H187.916V51.4502H187.246V48.7196C187.131 48.7628 187.016 48.8059 186.908 48.849L186.699 48.5751L186.533 48.8277C186.324 48.4675 186.144 48.1718 185.993 47.934V51.436Z" fill="#ED1C24"/>
<g filter="url(#filter0_d_1997_1466)">
<path d="M211 0H275V58.4L243 73L211 58.4V0Z" fill="url(#paint0_linear_1997_1466)"/>
</g>
<path d="M246.902 38.0231C246.959 37.9943 247.027 37.9941 247.094 38.0133C247.363 38.1095 247.363 38.3688 247.199 38.5514C246.68 39.1186 246.161 39.6856 245.652 40.2624C244.363 41.7043 240.356 46.8856 241.221 48.8561C241.25 48.9138 241.288 48.952 241.346 48.9616C242.182 49.1536 243.7 48.0292 244.431 47.4909C246.92 45.655 249.41 43.8289 251.909 42.0026C253.005 41.2048 254.333 40.3776 255.515 39.5221C255.63 39.4363 255.783 39.5616 255.726 39.696C255.543 40.1187 255.293 40.5028 254.976 40.8776C251.535 44.8859 248.247 49.0386 245.123 53.3161C245.114 53.3353 245.114 53.3553 245.133 53.3649C245.152 53.3743 245.171 53.3742 245.181 53.3649C246.508 52.2075 248.461 50.9023 250.292 50.8659C250.305 50.8153 250.317 50.7635 250.333 50.7116C250.689 49.5389 251.804 47.3851 252.977 46.8756C253.63 46.5969 254.024 47.1931 253.938 47.8083C253.803 48.7791 252.794 50.2881 251.641 49.7594C251.583 49.7307 251.535 49.7506 251.496 49.8083C251.208 50.356 251.026 50.9424 250.958 51.567C250.939 51.7688 251.131 51.932 251.323 51.8649C253.159 51.2882 254.524 50.2114 255.793 48.9137C256.447 48.2505 259.043 46.8568 259.129 48.7311C259.139 48.9329 258.879 49.0389 258.744 48.8854C257.629 47.6167 255.573 50.2012 255.15 51.0475C255.13 51.086 255.179 51.134 255.217 51.1051C255.967 50.6243 258.109 49.0297 258.965 49.3268C259.917 49.6536 258.869 50.6249 259.417 51.0094C259.504 51.067 259.619 51.0767 259.705 51.029C260.551 50.5772 261.34 50.0575 262.08 49.4616C262.734 48.9425 262.859 48.0873 263.406 47.4626C263.445 47.4146 263.502 47.3954 263.57 47.4049C264.06 47.4914 263.695 48.1158 263.647 48.4235C263.637 48.51 263.657 48.5194 263.724 48.4713C264.541 47.8851 265.454 47.5391 266.463 47.443C266.511 47.443 266.559 47.4721 266.569 47.5202C266.578 47.5682 266.559 47.6162 266.511 47.6354C264.521 48.4621 263.061 49.8177 262.128 51.692C261.955 52.0476 261.724 52.1919 261.368 51.942C261.205 51.8267 261.157 51.615 261.243 51.442L262.013 49.9811C262.071 49.8755 262.051 49.856 261.965 49.942C261.408 50.4515 260.84 50.9328 260.244 51.3942C259.158 52.2304 257.447 52.3359 258.494 50.2887C258.533 50.2118 258.446 50.1253 258.369 50.1637C257.552 50.5868 255.534 52.1143 254.698 52.0182C254.63 52.0086 254.573 51.9804 254.525 51.942C254.304 51.7402 254.217 51.4901 254.275 51.2018C254.313 51.0769 254.275 51.0578 254.179 51.1442C253.554 51.7401 252.833 52.1821 252.035 52.4801C250.679 52.9695 250.052 52.2859 250.235 51.1413C248.131 51.5864 246.309 53.2365 244.768 54.7682C242.711 56.8253 241.047 59.1707 239.769 61.8141L239.361 60.6159C239.743 59.8877 240.19 59.1267 240.701 58.3336C244.614 52.249 248.93 46.5971 253.64 41.3776C253.736 41.2719 253.727 41.2627 253.612 41.3395C250.026 43.9349 246.758 47.3665 242.874 49.4909C241.663 50.1541 240.173 50.0094 240.269 48.2887C240.442 45.0013 243.768 40.9065 246.066 38.6188C246.335 38.3498 246.613 38.148 246.902 38.0231ZM266.703 49.4333C265.559 48.4239 268.914 46.7801 269.722 47.8952C269.818 48.0297 269.827 48.193 269.702 48.3083C269.645 48.3562 269.597 48.3562 269.539 48.318C268.828 47.8566 267.828 48.3371 267.222 48.7985C267.136 48.8658 267.155 49.0001 267.261 49.029C267.963 49.2404 268.952 49.5296 269.308 50.2409C269.337 50.2888 269.395 50.3168 269.443 50.3073C269.769 50.2304 273.086 49.4814 272.999 49.8083C272.99 49.8464 272.951 49.8844 272.913 49.8942L269.5 50.692C269.443 50.7017 269.414 50.7407 269.395 50.7887C269 52.0382 266.799 53.3069 265.569 52.7975C265.511 52.7783 265.472 52.74 265.444 52.692C264.752 51.5868 267.894 50.7497 268.568 50.4997C268.635 50.4708 268.645 50.4322 268.568 50.3649C268.001 49.9615 267.184 49.8559 266.703 49.4333ZM266.108 52.067C266.098 52.0767 266.088 52.0859 266.098 52.1051C266.184 52.2781 266.751 52.1726 267.376 51.8747L267.414 51.8551C268.039 51.5571 268.472 51.1727 268.395 50.9997C268.385 50.9807 268.366 50.9801 268.357 50.9801L266.108 52.067ZM253.227 47.1833L251.718 49.2985C251.708 49.3081 251.709 49.327 251.728 49.3366L251.737 49.3463C251.948 49.5001 252.448 49.1733 252.842 48.6159L252.948 48.4713C253.342 47.9139 253.496 47.3372 253.284 47.193L253.275 47.1833C253.246 47.1738 253.236 47.1738 253.227 47.1833Z" fill="#4B4A4B"/>
<path d="M228.288 24.3622C229.679 24.3622 231.049 24.9696 231.937 25.975C232.471 26.5824 233.077 27.5983 232.91 28.9912C232.69 30.824 232.042 31.5257 226.595 35.8615C221.775 39.7051 218.753 45.2034 218.335 45.9993V50H237.803V44.6378H225.601C226.73 43.1297 228.215 41.4436 229.951 40.0611C234.478 36.448 236.83 34.5838 237.803 31.6723C239.057 27.5041 242.968 24.3622 247.526 24.3622C253.109 24.3622 257.647 28.9074 257.647 34.5C257.647 36.0081 257.313 37.4324 256.727 38.7206H262.415C262.791 37.3801 263 35.9662 263 34.5C263 25.9541 256.058 19 247.526 19C243.334 19 239.517 20.6861 236.726 23.4091C236.496 23.0635 236.234 22.7284 235.952 22.4142C234.028 20.2463 231.237 19 228.288 19C222.622 19 218.011 23.6186 218 29.3054L223.353 29.3159C223.364 26.5824 225.57 24.3622 228.288 24.3622Z" fill="#ED1C24"/>
<path d="M219.113 12.08C218.718 12.08 218.353 12.008 218.017 11.864C217.686 11.7147 217.398 11.5093 217.153 11.248C216.907 10.9813 216.718 10.6693 216.585 10.312C216.451 9.94933 216.385 9.552 216.385 9.12C216.385 8.688 216.451 8.29333 216.585 7.936C216.718 7.57333 216.905 7.26133 217.145 7C217.39 6.73333 217.678 6.528 218.009 6.384C218.345 6.23467 218.71 6.16 219.105 6.16C219.537 6.16 219.923 6.248 220.265 6.424C220.611 6.6 220.894 6.848 221.113 7.168C221.337 7.488 221.475 7.86133 221.529 8.288H220.873C220.809 7.81333 220.619 7.44 220.305 7.168C219.995 6.89067 219.598 6.752 219.113 6.752C218.702 6.752 218.342 6.85333 218.033 7.056C217.723 7.25333 217.483 7.53067 217.313 7.888C217.142 8.24 217.057 8.65067 217.057 9.12C217.057 9.58933 217.142 10.0027 217.313 10.36C217.483 10.712 217.723 10.9893 218.033 11.192C218.342 11.3893 218.699 11.488 219.105 11.488C219.601 11.488 220.006 11.3493 220.321 11.072C220.641 10.7947 220.83 10.4213 220.889 9.952H221.545C221.491 10.3787 221.353 10.752 221.129 11.072C220.91 11.392 220.627 11.64 220.281 11.816C219.939 11.992 219.55 12.08 219.113 12.08ZM222.602 12V6.24H223.258V12H222.602ZM222.938 12V11.424H226.458V12H222.938ZM222.938 9.288V8.712H226.17V9.288H222.938ZM222.938 6.816V6.24H226.394V6.816H222.938ZM227.704 12V6.24H228.36V12H227.704ZM228.04 12V11.424H231.32V12H228.04ZM232.407 12V6.24H233.063V12H232.407ZM232.743 12V11.424H236.263V12H232.743ZM232.743 9.288V8.712H235.975V9.288H232.743ZM232.743 6.816V6.24H236.199V6.816H232.743ZM237.683 12V11.456H239.523C239.875 11.456 240.155 11.36 240.363 11.168C240.571 10.976 240.675 10.7173 240.675 10.392C240.675 10.0453 240.565 9.768 240.347 9.56C240.128 9.352 239.835 9.248 239.467 9.248H237.683V8.72H239.379C239.741 8.72 240.024 8.632 240.227 8.456C240.429 8.28 240.531 8.032 240.531 7.712C240.531 7.41333 240.435 7.184 240.243 7.024C240.056 6.864 239.781 6.784 239.419 6.784H237.683V6.24H239.475C240.003 6.24 240.419 6.36533 240.723 6.616C241.032 6.86667 241.187 7.208 241.187 7.64C241.187 7.912 241.125 8.15467 241.003 8.368C240.88 8.58133 240.712 8.74933 240.499 8.872C240.285 8.98933 240.04 9.048 239.763 9.048L239.803 8.88C240.096 8.88 240.357 8.94933 240.587 9.088C240.821 9.22667 241.005 9.416 241.139 9.656C241.277 9.89067 241.347 10.16 241.347 10.464C241.347 10.768 241.272 11.0373 241.123 11.272C240.979 11.5013 240.773 11.68 240.507 11.808C240.24 11.936 239.931 12 239.579 12H237.683ZM237.251 12V6.24H237.907V12H237.251ZM242.384 12V6.24H244.512C244.922 6.24 245.272 6.30667 245.56 6.44C245.848 6.57333 246.066 6.76 246.216 7C246.37 7.23467 246.448 7.51467 246.448 7.84C246.448 8.16533 246.37 8.45067 246.216 8.696C246.066 8.936 245.848 9.12533 245.56 9.264C245.272 9.39733 244.922 9.464 244.512 9.464H242.864V8.888H244.488C244.914 8.888 245.237 8.79467 245.456 8.608C245.68 8.42133 245.792 8.16533 245.792 7.84C245.792 7.52 245.682 7.26933 245.464 7.088C245.245 6.90667 244.92 6.816 244.488 6.816H243.04V12H242.384ZM245.76 12L242.696 9.144H243.592L246.752 12H245.76ZM247.234 12L249.458 6.24H250.034L247.866 12H247.234ZM251.81 12L249.642 6.24H250.258L252.482 12H251.81ZM248.338 9.672H251.346V10.248H248.338V9.672ZM254.038 12V6.816H252.062V6.24H256.67V6.816H254.694V12H254.038ZM257.649 12V6.24H258.305V12H257.649ZM259.68 12V6.24H260.36L263.664 11.088L263.568 11.104V6.24H264.192V12H263.512L260.208 7.152L260.304 7.136V12H259.68ZM268.163 12.08C267.576 12.08 267.067 11.96 266.635 11.72C266.203 11.48 265.87 11.144 265.635 10.712C265.4 10.2747 265.283 9.76 265.283 9.168C265.283 8.576 265.398 8.056 265.627 7.608C265.862 7.15467 266.184 6.8 266.595 6.544C267.011 6.288 267.488 6.16 268.027 6.16C268.448 6.16 268.83 6.24 269.171 6.4C269.518 6.56 269.8 6.78133 270.019 7.064C270.243 7.34667 270.379 7.67467 270.427 8.048H269.771C269.718 7.65333 269.534 7.33867 269.219 7.104C268.91 6.86933 268.52 6.752 268.051 6.752C267.63 6.752 267.262 6.85333 266.947 7.056C266.632 7.25333 266.387 7.53067 266.211 7.888C266.04 8.24533 265.955 8.66667 265.955 9.152C265.955 9.63733 266.043 10.056 266.219 10.408C266.4 10.7547 266.659 11.0213 266.995 11.208C267.336 11.3947 267.744 11.488 268.219 11.488C268.544 11.488 268.835 11.4427 269.091 11.352C269.347 11.256 269.579 11.1093 269.787 10.912L270.443 11.152C270.15 11.4613 269.811 11.6933 269.427 11.848C269.048 12.0027 268.627 12.08 268.163 12.08ZM269.787 11.152V9.288L270.035 9.536H268.211V8.96H270.443V11.152H269.787Z" fill="#4B4A4B"/>
<defs>
<filter id="filter0_d_1997_1466" x="211" y="0" width="64" height="74" filterUnits="userSpaceOnUse" color-interpolation-filters="sRGB">
<feFlood flood-opacity="0" result="BackgroundImageFix"/>
<feColorMatrix in="SourceAlpha" type="matrix" values="0 0 0 0 0 0 0 0 0 0 0 0 0 0 0 0 0 0 127 0" result="hardAlpha"/>
<feOffset dy="1"/>
<feComposite in2="hardAlpha" operator="out"/>
<feColorMatrix type="matrix" values="0 0 0 0 0 0 0 0 0 0 0 0 0 0 0 0 0 0 0.25 0"/>
<feBlend mode="normal" in2="BackgroundImageFix" result="effect1_dropShadow_1997_1466"/>
<feBlend mode="normal" in="SourceGraphic" in2="effect1_dropShadow_1997_1466" result="shape"/>
</filter>
<linearGradient id="paint0_linear_1997_1466" x1="244.171" y1="73" x2="248.206" y2="-20.2654" gradientUnits="userSpaceOnUse">
<stop stop-color="#E9E9E9"/>
<stop offset="1" stop-color="white"/>
</linearGradient>
</defs>
</svg>
